<?xml version="1.0" encoding="utf-8"?><svg viewBox="0 0 1488 445" xmlns="http://www.w3.org/2000/svg" xmlns:xlink="http://www.w3.org/1999/xlink"><style>:root>svg{display:none}:root>svg:target{display:block}</style><svg fill="none" viewBox="0 0 203 63" id="about-bg-decor" xmlns="http://www.w3.org/2000/svg"><circle cx="31" cy="31.5" r="29.5" stroke="#fff" stroke-width="3"/><circle cx="117" cy="31.5" r="29.5" stroke="#fff" stroke-width="3"/><circle cx="203" cy="31.5" r="31" fill="#fff"/></svg><svg fill="none" viewBox="0 0 18 13" id="arrow-yellow" xmlns="http://www.w3.org/2000/svg"><path d="m2 2 8 8 8-8" stroke="#FCB72B" stroke-width="3"/></svg><svg fill="none" viewBox="0 0 18 18" id="burger-close" xmlns="http://www.w3.org/2000/svg"><path fill="#FCB72B" d="m3.19.732 13.924 13.924-2.61 2.61L.578 3.343z"/><path fill="#FCB72B" d="M.578 14.657 14.502.733l2.611 2.61L3.19 17.268z"/></svg><svg fill="none" viewBox="0 0 20 16" id="burger-menu" xmlns="http://www.w3.org/2000/svg"><path d="M0 0h19.692v3.692H0zm0 6.154h19.692v3.692H0zm0 6.154h19.692V16H0z" fill="#FCB72B"/></svg><svg fill="none" viewBox="0 0 234 62" id="circles" xmlns="http://www.w3.org/2000/svg"><circle cx="31" cy="31" r="29.5" stroke="#fff" stroke-width="3"/><circle cx="117" cy="31" r="29.5" stroke="#fff" stroke-width="3"/><circle cx="203" cy="31" r="31" fill="#fff"/></svg><svg fill="none" viewBox="0 0 203 63" id="decor-round" xmlns="http://www.w3.org/2000/svg"><circle cx="31" cy="31.5" r="29.5" stroke="#fff" stroke-width="3"/><circle cx="117" cy="31.5" r="29.5" stroke="#fff" stroke-width="3"/><circle cx="203" cy="31.5" r="31" fill="#fff"/></svg><svg fill="none" viewBox="0 0 18 21" id="favicon" xmlns="http://www.w3.org/2000/svg"><path d="M9.12 20.96c2.613 0 4.64-.587 6.08-1.76 1.44-1.173 2.16-2.747 2.16-4.72v-.24c0-1.787-.64-3.18-1.92-4.18-1.28-1-2.933-1.607-4.96-1.82-1.76-.187-2.973-.42-3.64-.7-.667-.28-1-.74-1-1.38 0-.453.213-.833.64-1.14.427-.307 1.067-.46 1.92-.46.933 0 1.693.207 2.28.62.587.413 1 .98 1.24 1.7l4.56-1.84a8.832 8.832 0 0 0-.92-1.74c-.4-.6-.92-1.147-1.56-1.64-.64-.493-1.42-.893-2.34-1.2C10.74.153 9.653 0 8.4 0c-.96 0-1.893.133-2.8.4a7.473 7.473 0 0 0-2.4 1.18 6.193 6.193 0 0 0-1.68 1.9c-.427.747-.64 1.613-.64 2.6v.24c0 1.893.66 3.327 1.98 4.3 1.32.973 3.1 1.553 5.34 1.74.827.08 1.513.187 2.06.32.547.133.98.3 1.3.5.32.2.54.413.66.64.12.227.18.473.18.74 0 .453-.233.873-.7 1.26-.467.387-1.327.58-2.58.58-1.413 0-2.46-.32-3.14-.96-.68-.64-1.127-1.387-1.34-2.24L0 14.72c.133.693.393 1.407.78 2.14.387.733.94 1.4 1.66 2 .72.6 1.627 1.1 2.72 1.5 1.093.4 2.413.6 3.96.6z" fill="#FCB72B"/></svg><svg fill="none" viewBox="0 0 1006 166" id="footer-decor" xmlns="http://www.w3.org/2000/svg"><g filter="url(#ha)"><circle opacity=".1" cx="173.5" cy="173.5" r="173.5" transform="matrix(-1 0 0 1 1165 8)" fill="#E5ECF4"/><circle opacity=".1" cx="173.5" cy="173.5" r="173.5" transform="matrix(-1 0 0 1 762 8)" stroke="#E5ECF4" stroke-width="15"/><circle opacity=".1" cx="173.5" cy="173.5" r="173.5" transform="matrix(-1 0 0 1 359 8)" stroke="#E5ECF4" stroke-width="15"/></g><defs><filter id="ha" x=".5" y=".5" width="1168.5" height="370" filterUnits="userSpaceOnUse" color-interpolation-filters="sRGB"><feFlood flood-opacity="0" result="BackgroundImageFix"/><feColorMatrix in="SourceAlpha" values="0 0 0 0 0 0 0 0 0 0 0 0 0 0 0 0 0 0 127 0" result="hardAlpha"/><feOffset dy="4"/><feGaussianBlur stdDeviation="2"/><feComposite in2="hardAlpha" operator="out"/><feColorMatrix values="0 0 0 0 0 0 0 0 0 0 0 0 0 0 0 0 0 0 0.25 0"/><feBlend in2="BackgroundImageFix" result="effect1_dropShadow_0_3540"/><feBlend in="SourceGraphic" in2="effect1_dropShadow_0_3540" result="shape"/></filter></defs></svg><svg fill="none" viewBox="0 0 445 445" id="grey-round" xmlns="http://www.w3.org/2000/svg"><circle cx="222.5" cy="222.5" r="222.5" fill="#E5ECF4"/></svg><svg fill="none" viewBox="0 0 1488 151" id="hero-bg-items" xmlns="http://www.w3.org/2000/svg"><path d="m1112.95 145.444 38.43-38.426-38.43-38.426" stroke="#FCB72B" stroke-width="15" stroke-linejoin="bevel"/><path d="M705 8h270.115v99.369h176.265" stroke="#FCB72B" stroke-width="15" stroke-linejoin="bevel"/><path d="M203 7.5H.5" stroke="#FCB72B" stroke-width="15"/><circle cx="1285" cy="107" r="29.5" stroke="#fff" stroke-width="3"/><circle cx="1371" cy="107" r="29.5" stroke="#fff" stroke-width="3"/><circle cx="1457" cy="107" r="31" fill="#fff"/></svg><svg fill="none" viewBox="0 0 96 96" id="icon-app" xmlns="http://www.w3.org/2000/svg"><circle cx="48" cy="48" r="48" fill="#FCB72B"/><path fill-rule="evenodd" clip-rule="evenodd" d="M53.8 24H33.01a4.003 4.003 0 0 0-3.997 3.998v39.978a4.003 4.003 0 0 0 3.998 3.998H53v-1.43a18.178 18.178 0 0 1 3.064-10.12.8.8 0 0 0-.1-1.008l-5.597-5.597a2.594 2.594 0 0 1 .19-3.839 2.693 2.693 0 0 1 3.58.276l7.893 7.893 1.13-1.13-5.362-5.365V27.998A4.003 4.003 0 0 0 53.8 24zm2.398 26.055-.93-.93a4.303 4.303 0 0 0-5.729-.38 4.194 4.194 0 0 0-.303 6.204l5.142 5.142a19.77 19.77 0 0 0-2.971 10.284H33.01a2.4 2.4 0 0 1-2.399-2.398v-2.4h19.99V63.98h-19.99V30.397h25.586v19.658zM30.612 28.797h25.586v-.8A2.4 2.4 0 0 0 53.8 25.6H33.01a2.4 2.4 0 0 0-2.398 2.399v.8zM60.155 42.6l-1.078 1.18 4.903 4.494a5.61 5.61 0 0 1 1.813 4.127v19.573h1.6V52.401a7.214 7.214 0 0 0-2.334-5.306L60.155 42.6zM33.81 38.392h3.199a1.6 1.6 0 0 0 1.599-1.599v-3.198a1.6 1.6 0 0 0-1.6-1.6H33.81a1.6 1.6 0 0 0-1.599 1.6v3.198a1.6 1.6 0 0 0 1.6 1.6zm0-4.797h3.199v3.198H33.81v-3.198zm11.194 4.797h-3.198a1.6 1.6 0 0 1-1.6-1.599v-3.198a1.6 1.6 0 0 1 1.6-1.6h3.198a1.6 1.6 0 0 1 1.6 1.6v3.198a1.6 1.6 0 0 1-1.6 1.6zm0-4.797h-3.198v3.198h3.198v-3.198zm4.798 4.797H53a1.6 1.6 0 0 0 1.6-1.599v-3.198a1.6 1.6 0 0 0-1.6-1.6h-3.198a1.6 1.6 0 0 0-1.6 1.6v3.198a1.6 1.6 0 0 0 1.6 1.6zm0-4.797H53v3.198h-3.198v-3.198zM37.009 46.388H33.81a1.6 1.6 0 0 1-1.599-1.6v-3.197a1.6 1.6 0 0 1 1.6-1.6h3.198a1.6 1.6 0 0 1 1.599 1.6v3.198a1.6 1.6 0 0 1-1.6 1.6zm0-4.797H33.81v3.198h3.199V41.59zM33.81 54.384h3.199a1.6 1.6 0 0 0 1.599-1.6v-3.198a1.6 1.6 0 0 0-1.6-1.599H33.81a1.6 1.6 0 0 0-1.599 1.6v3.198a1.6 1.6 0 0 0 1.6 1.599zm0-4.798h3.199v3.199H33.81v-3.199zm11.194-3.198h-3.198a1.6 1.6 0 0 1-1.6-1.6v-3.197a1.6 1.6 0 0 1 1.6-1.6h3.198a1.6 1.6 0 0 1 1.6 1.6v3.198a1.6 1.6 0 0 1-1.6 1.6zm0-4.797h-3.198v3.198h3.198V41.59zm4.798 4.797H53a1.6 1.6 0 0 0 1.6-1.6v-3.197a1.6 1.6 0 0 0-1.6-1.6h-3.198a1.6 1.6 0 0 0-1.6 1.6v3.198a1.6 1.6 0 0 0 1.6 1.6zm0-4.797H53v3.198h-3.198V41.59zm-4.798 12.793h-3.198a1.6 1.6 0 0 1-1.6-1.6v-3.198a1.6 1.6 0 0 1 1.6-1.599h3.198a1.6 1.6 0 0 1 1.6 1.6v3.198a1.6 1.6 0 0 1-1.6 1.599zm0-4.798h-3.198v3.199h3.198v-3.199zM33.81 62.38h3.199a1.6 1.6 0 0 0 1.599-1.6v-3.198a1.6 1.6 0 0 0-1.6-1.6H33.81a1.6 1.6 0 0 0-1.599 1.6v3.198a1.6 1.6 0 0 0 1.6 1.6zm0-4.798h3.199v3.198H33.81v-3.198zm11.194 4.797h-3.198a1.6 1.6 0 0 1-1.6-1.599v-3.198a1.6 1.6 0 0 1 1.6-1.6h3.198a1.6 1.6 0 0 1 1.6 1.6v3.198a1.6 1.6 0 0 1-1.6 1.6zm0-4.797h-3.198v3.198h3.198v-3.198zm-.8 9.595h-1.598v1.6h1.599v-1.6z" fill="#495567"/></svg><svg fill="none" viewBox="0 0 19 20" id="icon-cursor" xmlns="http://www.w3.org/2000/svg"><g filter="url(#la)"><mask id="lb" maskUnits="userSpaceOnUse" x="2" y="1" width="15" height="16" fill="#000"><path fill="#fff" d="M2 1h15v16H2z"/><path fill-rule="evenodd" clip-rule="evenodd" d="M8 16s-2.206-1.699-2.982-3c-.776-1.301-2.247-2.959-1.988-4 .259-1.041 1.212-1.37 1.988-.588.776.78 1.299 2.472 1.816 2.212.517-.26.13-2.733-.388-4.164C5.93 5.028 5.39 2 6.446 2S7.503 3 8 4.5C8.497 6 8.109 8 8.497 8s.536-.35.536-1a.9.9 0 0 1 .104-.45c.188-.332.63-.48 1.348-.48.985 0 .497 1.93.994 1.93s.497.041.497-1 .46-.93 1.454-.93S13.943 8 14.46 8c.518 0 0-1 .497-1s.994.158.994 2.5.28 2.459-.497 3.5l-1.49 2s0 1-.534 1c-.533 0-.808-1-1.454-1-.647 0-.995 1-.995 1H8zm5.963-2v-4h-.994v4h.994zm-2.981-1c0 .27.23 1 .497 1 .274 0 .497-.725.497-1v-2c0-.27-.231-1-.498-1-.274 0-.496.725-.496 1v2zm-1.988 0c0 .27.23 1 .497 1 .274 0 .497-.725.497-1v-2c0-.27-.23-1-.497-1-.275 0-.497.725-.497 1v2z"/></mask><path fill-rule="evenodd" clip-rule="evenodd" d="M8 16s-2.206-1.699-2.982-3c-.776-1.301-2.247-2.959-1.988-4 .259-1.041 1.212-1.37 1.988-.588.776.78 1.299 2.472 1.816 2.212.517-.26.13-2.733-.388-4.164C5.93 5.028 5.39 2 6.446 2S7.503 3 8 4.5C8.497 6 8.109 8 8.497 8s.536-.35.536-1a.9.9 0 0 1 .104-.45c.188-.332.63-.48 1.348-.48.985 0 .497 1.93.994 1.93s.497.041.497-1 .46-.93 1.454-.93S13.943 8 14.46 8c.518 0 0-1 .497-1s.994.158.994 2.5.28 2.459-.497 3.5l-1.49 2s0 1-.534 1c-.533 0-.808-1-1.454-1-.647 0-.995 1-.995 1H8zm5.963-2v-4h-.994v4h.994zm-2.981-1c0 .27.23 1 .497 1 .274 0 .497-.725.497-1v-2c0-.27-.231-1-.498-1-.274 0-.496.725-.496 1v2zm-1.988 0c0 .27.23 1 .497 1 .274 0 .497-.725.497-1v-2c0-.27-.23-1-.497-1-.275 0-.497.725-.497 1v2z" fill="#fff"/><path d="m8 16-.61.792.27.208H8v-1zM3.03 9l.97.241L3.03 9zm1.988-.588-.71.705.71-.705zm1.816 2.212-.45-.894.45.894zM6.446 6.46l.94-.34-.94.34zm0-4.46V1v1zm2.05 6v1-1zm.537-1h-1 1zm.104-.45-.87-.492.87.492zm1.348-.48v-1 1zM11.479 8V7v1zm.497-1h-1 1zm1.454-.93v-1 1zM14.46 8v1-1zm.497-1V6v1zm.994 2.5h-1 1zm-.497 3.5.802.598-.802-.598zm-1.49 2-.802-.598-.199.266V15h1zm-.534 1v-1 1zm-1.454-1v-1 1zm-.995 1v1h.712l.233-.672-.944-.328zm2.982-2v1h1v-1h-1zm0-4h1V9h-1v1zm-.994 0V9h-1v1h1zm0 4h-1v1h1v-1zM8 16l.611-.792-.004-.003a11.865 11.865 0 0 1-.329-.264 21.64 21.64 0 0 1-.806-.694c-.645-.585-1.29-1.249-1.594-1.76L4.16 13.512c.472.79 1.318 1.627 1.97 2.217a24.015 24.015 0 0 0 1.23 1.04l.022.016.006.005.002.002L8 16zm-2.122-3.512a21.175 21.175 0 0 0-.708-1.08c-.247-.36-.48-.7-.68-1.027a4.673 4.673 0 0 1-.423-.832C3.983 9.314 4.003 9.23 4 9.24l-1.94-.48c-.132.53-.025 1.046.12 1.455.147.418.372.833.603 1.21.232.38.496.764.736 1.114.246.36.465.68.64.974l1.718-1.024zM4 9.24c.068-.275.175-.279.127-.264-.019.006-.026 0-.008.006.023.007.09.035.189.134l1.418-1.41c-.585-.589-1.39-.89-2.194-.64-.785.245-1.283.926-1.473 1.692L4 9.24zm.308-.124c.275.277.509.725.856 1.305.142.236.336.55.568.782.119.12.31.282.576.375.305.107.652.1.974-.062L6.385 9.73a.76.76 0 0 1 .585-.038c.135.047.194.115.18.1-.037-.036-.118-.146-.27-.398-.236-.396-.652-1.183-1.153-1.687L4.31 9.117zm2.974 2.4a1.34 1.34 0 0 0 .633-.719 2.35 2.35 0 0 0 .144-.636c.038-.393.014-.85-.039-1.297-.105-.9-.348-1.952-.634-2.745l-1.881.68c.23.638.44 1.538.529 2.297.045.383.053.682.034.87-.01.098-.021.118-.011.092a.667.667 0 0 1 .327-.329l.898 1.787zm.104-5.397a10.482 10.482 0 0 1-.534-2.499c-.03-.43-.005-.71.034-.844.018-.062.017-.013-.057.062A.56.56 0 0 1 6.446 3V1c-.4 0-.762.155-1.033.427a1.833 1.833 0 0 0-.445.787c-.14.48-.146 1.046-.11 1.551.075 1.037.361 2.242.648 3.035l1.88-.68zM6.447 3c.096 0 .07.02.018-.02-.035-.026-.008-.026.054.113.064.145.127.345.215.656.083.292.183.664.317 1.065l1.898-.628c-.115-.349-.2-.665-.291-.982a7.063 7.063 0 0 0-.311-.922c-.133-.298-.335-.642-.683-.903C7.3 1.106 6.877 1 6.446 1v2zm.604 1.814c.193.586.224 1.313.238 2.018.006.312.01.678.044.954.016.13.049.347.149.556.107.225.414.658 1.015.658V7c.503 0 .738.371.79.48.045.094.04.144.03.062-.017-.146-.02-.373-.028-.75-.013-.67-.037-1.692-.34-2.606l-1.898.628zM8.497 9c.251 0 .525-.059.778-.218.252-.157.42-.374.527-.586.196-.386.23-.833.23-1.196h-2c0 .128-.007.216-.016.272-.01.06-.016.056.002.02a.54.54 0 0 1 .195-.204A.55.55 0 0 1 8.497 7v2zm1.536-2c0-.024.002-.029 0-.02a.241.241 0 0 1-.025.062l-1.742-.984A1.896 1.896 0 0 0 8.033 7h2zm-.025.042c-.054.095-.121.106-.064.087.074-.026.237-.06.54-.06v-2c-.738 0-1.733.13-2.218.99l1.742.983zm.477.027a.457.457 0 0 1-.237-.076.414.414 0 0 1-.137-.136c-.006-.012.004.003.02.065.015.06.028.14.042.243.018.139.051.514.102.747.028.126.086.355.233.57.18.263.51.518.97.518V7c.337 0 .573.195.68.352.076.11.083.187.071.133-.028-.13-.028-.236-.073-.58-.032-.247-.095-.658-.296-1.02a1.596 1.596 0 0 0-.528-.573 1.548 1.548 0 0 0-.847-.243v2zM11.479 9c.055 0 .279.007.462-.025a1.172 1.172 0 0 0 .86-.624c.14-.27.158-.56.165-.701.01-.177.01-.402.01-.65h-2c0 .273 0 .432-.007.541l-.004.055a.607.607 0 0 1 .06-.166.828.828 0 0 1 .566-.424c.043-.008.065-.007.032-.006h-.144v2zm1.497-2c0-.096.005-.156.01-.19.005-.035.008-.028-.005.002a.51.51 0 0 1-.257.252c-.038.016-.056.016-.036.013.02-.003.058-.007.128-.01h.257l.357.002v-2c-.199 0-.478-.007-.679 0a2.244 2.244 0 0 0-.814.156 1.487 1.487 0 0 0-.792.794c-.138.32-.17.668-.17.981h2zm.454.07a.446.446 0 0 1-.228-.074.404.404 0 0 1-.134-.131c-.006-.011.004.004.02.067.017.06.031.14.046.243.02.142.057.517.114.755.031.13.096.36.25.574.19.26.519.496.962.496V7a.82.82 0 0 1 .658.33c.078.108.088.187.076.136-.03-.123-.032-.231-.08-.572-.035-.246-.102-.656-.307-1.017a1.606 1.606 0 0 0-.532-.568 1.557 1.557 0 0 0-.845-.24v2zM14.46 9c.23 0 .504-.058.751-.244.241-.182.362-.414.422-.59.057-.167.073-.322.079-.42a3.4 3.4 0 0 0 .004-.256v-.122c.002-.023.003.018-.02.088a.778.778 0 0 1-.26.37.782.782 0 0 1-.479.174V6c-.236 0-.516.063-.764.26-.24.19-.351.427-.404.596a1.642 1.642 0 0 0-.07.408c-.005.097-.003.193-.002.246l-.001.11c-.001.02-.001-.026.024-.1a.773.773 0 0 1 .268-.362A.764.764 0 0 1 14.46 7v2zm.497-1c.085 0 .04.01-.038-.024-.106-.046-.151-.117-.15-.115.013.024.065.135.109.416.043.275.073.668.073 1.223h2c0-1.18-.114-2.04-.438-2.618a1.677 1.677 0 0 0-.787-.736A1.874 1.874 0 0 0 14.957 6v2zm-.006 1.5c0 .606.018 1.07.032 1.428.015.375.022.585.012.75a.74.74 0 0 1-.055.272c-.037.086-.11.215-.287.452l1.603 1.196a4.26 4.26 0 0 0 .523-.861c.137-.32.194-.623.213-.939.017-.287.003-.61-.01-.949a31.89 31.89 0 0 1-.03-1.349h-2zm-.299 2.902a9383.383 9383.383 0 0 0-1.367 1.834l-.091.123-.024.032-.006.009-.002.002.801.598.802.598v-.001l.002-.002.006-.008.024-.033.092-.122.33-.444 1.037-1.39-1.604-1.196zM13.963 15h-1v-.006s0-.001 0 0a.654.654 0 0 1-.004.074 1.08 1.08 0 0 1-.029.174c-.017.064-.021.038.027-.023a.634.634 0 0 1 .473-.22V17c.5 0 .867-.254 1.09-.532.198-.248.293-.524.343-.71a3.085 3.085 0 0 0 .1-.746V15h-1zm-.533 0c.202 0 .308.1.285.08-.037-.03-.08-.08-.213-.234a3.319 3.319 0 0 0-.502-.49A1.696 1.696 0 0 0 11.977 14v2c-.118 0-.186-.052-.175-.044.027.021.075.067.188.198.083.096.249.296.434.453.198.168.539.393 1.007.393v-2zm-1.454-1c-.861 0-1.37.645-1.57.943a3.442 3.442 0 0 0-.368.727v.001c-.001 0-.001.001.944.329l.944.329v.001l-.001.002a.028.028 0 0 1-.001.003l.004-.012.028-.065c.028-.06.066-.134.11-.201a.74.74 0 0 1 .06-.077.21.21 0 0 1 .026-.027.315.315 0 0 1-.176.047v-2zm-.995 1H8v2h2.982v-2zm3.982-1v-4h-2v4h2zm-1-5h-.994v2h.994V9zm-1.994 1v4h2v-4h-2zm1 5h.994v-2h-.994v2zm-2.987-2c0 .316.106.703.226.99.065.152.162.348.305.523.114.14.435.487.966.487v-2c.203 0 .355.07.443.127a.6.6 0 0 1 .142.124c.025.03.015.026-.012-.037a1.235 1.235 0 0 1-.07-.24c-.003-.016 0-.005 0 .026h-2zm1.497 2c.522 0 .843-.333.965-.482.146-.178.245-.376.309-.53.121-.291.223-.676.223-.988h-2c0-.04.004-.027-.013.043a1.178 1.178 0 0 1-.056.175c-.026.062-.035.062-.007.029a.605.605 0 0 1 .146-.125.813.813 0 0 1 .433-.122v2zm1.497-2v-2h-2v2h2zm0-2c0-.316-.107-.703-.227-.99a2.163 2.163 0 0 0-.305-.523C12.33 9.347 12.01 9 11.478 9v2a.821.821 0 0 1-.443-.127.6.6 0 0 1-.142-.124c-.025-.03-.015-.026.012.037a1.235 1.235 0 0 1 .07.24c.003.016 0 .005 0-.026h2zm-1.498-2c-.522 0-.843.333-.965.482a2.123 2.123 0 0 0-.309.53c-.121.291-.222.676-.222.988h2c0 .04-.005.027.012-.043.014-.059.034-.123.056-.175.026-.062.035-.062.007-.029a.605.605 0 0 1-.146.125.814.814 0 0 1-.432.122V9zm-1.496 2v2h2v-2h-2zm-1.988 2c0 .316.106.703.227.99.064.152.161.348.304.523.114.14.435.487.966.487v-2c.203 0 .355.07.443.127a.605.605 0 0 1 .142.124c.025.03.015.026-.012-.037a1.223 1.223 0 0 1-.07-.24c-.003-.016 0-.005 0 .026h-2zm1.497 2c.522 0 .843-.333.965-.482.146-.178.245-.376.309-.53.121-.291.223-.676.223-.988h-2c0-.04.004-.027-.013.043a1.184 1.184 0 0 1-.056.175c-.026.062-.034.062-.007.029a.606.606 0 0 1 .146-.125.814.814 0 0 1 .433-.122v2zm1.497-2v-2h-2v2h2zm0-2c0-.316-.107-.703-.227-.99a2.166 2.166 0 0 0-.305-.523c-.114-.14-.435-.487-.965-.487v2a.821.821 0 0 1-.444-.127.603.603 0 0 1-.142-.124c-.025-.03-.014-.026.012.037a1.225 1.225 0 0 1 .071.24c.002.016 0 .005 0-.026h2zM9.49 9c-.522 0-.843.333-.966.482a2.126 2.126 0 0 0-.309.53c-.121.291-.222.676-.222.988h2c0 .04-.005.027.012-.043.014-.059.034-.123.056-.175.026-.062.035-.062.007-.029a.606.606 0 0 1-.146.125.814.814 0 0 1-.432.122V9zm-1.497 2v2h2v-2h-2z" fill="#000" mask="url(#lb)"/></g><defs><filter id="la" x="0" y="0" width="19" height="20" filterUnits="userSpaceOnUse" color-interpolation-filters="sRGB"><feFlood flood-opacity="0" result="BackgroundImageFix"/><feColorMatrix in="SourceAlpha" values="0 0 0 0 0 0 0 0 0 0 0 0 0 0 0 0 0 0 127 0" result="hardAlpha"/><feOffset dy="1"/><feGaussianBlur stdDeviation="1"/><feColorMatrix values="0 0 0 0 0 0 0 0 0 0 0 0 0 0 0 0 0 0 1 0"/><feBlend in2="BackgroundImageFix" result="effect1_dropShadow_0_2775"/><feBlend in="SourceGraphic" in2="effect1_dropShadow_0_2775" result="shape"/></filter></defs></svg><svg fill="none" viewBox="0 0 96 96" id="icon-enjoy" xmlns="http://www.w3.org/2000/svg"><circle cx="48" cy="48" r="48" fill="#FCB72B"/><path fill-rule="evenodd" clip-rule="evenodd" d="M64.171 46H66a.667.667 0 0 0 .667-.667V40a.667.667 0 0 0-.667-.667h-6.255l-1.078-2.157v-2.51A.667.667 0 0 0 58 34h-4a.667.667 0 0 0-.667.667v2.666c0 .369.299.667.667.667h3.588l1.079 2.157V44a2 2 0 0 0-4 0v-1.333A.667.667 0 0 0 54 42h-5.251l-2.082-.52V30.666A2.667 2.667 0 0 0 44 28h-2.667a2.667 2.667 0 0 0-2.666 2.667V38h-3.334a2 2 0 0 0-2 2v2h-4.666a.667.667 0 0 0-.472 1.138l1.529 1.529-1.529 1.528a.667.667 0 0 0 .472 1.138h6.666a2 2 0 0 0 2-2v-2h1.334V50h-2a4.667 4.667 0 0 0-4.614 4H30a.667.667 0 0 0-.667.667v2.666c0 .369.299.667.667.667h2v1.333h-3.333A.667.667 0 0 0 28 60v2.667c0 .368.299.666.667.666H36a4.667 4.667 0 1 0 9.333 0h12a4.667 4.667 0 1 0 9.334 0h.666a.666.666 0 0 0 .65-.816L64.171 46zm-9.504-2a2 2 0 1 0 4 0v14h-2v-.667a2 2 0 0 0-2-2V48a.667.667 0 0 0-.667-.667h-7.333v-1.812l1.838.459c.053.013.107.02.162.02H54a.667.667 0 0 0 .667-.667V44zm2.666-7.333h-2.666v-1.334h2.666v1.334zM32 62v-1.333h-2.667V62H32zm0-5.333h-1.333v-1.334H32v1.334zm33.333-16H64v4h1.333v-4zm-5.333 0h2.667v4H60v-4zm-4.667 16.666a.667.667 0 0 0-.666-.666H52V58h3.333v-.667zm-6.828-14.02a.63.63 0 0 0 .162.02h4.666v1.334H48.75L44 43.479v-1.292l4.505 1.126zm-7.172-13.98c-.736 0-1.333.597-1.333 1.334v2.666h2V32c0-.368.298-.667.667-.667h2.666v-.666c0-.737-.597-1.334-1.333-1.334h-2.667zM40 34.667h2.667a.667.667 0 0 0 .666-.667v-1.333h2v1.504L40 35.77v-1.104zm5.333 4v-3.104L40 37.163v1.504h5.333zm0 1.333v1.146l-1.838-.46a.666.666 0 0 0-.828.647V44c0 .306.208.572.504.647l2.162.54v2.146H40V40h5.333zm8 15.333v-6.666H40V50h11.333c.369 0 .667.298.667.667v4.666h1.333zM36 45.333a.667.667 0 0 1-.667.667h-5.057l.862-.862a.667.667 0 0 0 0-.943l-.862-.862H36v2zM34.667 40v2h4v-2.667h-3.334a.667.667 0 0 0-.666.667zm6 26.667a3.337 3.337 0 0 1-3.334-3.334h1.334a2 2 0 1 0 4 0H44a3.337 3.337 0 0 1-3.333 3.334zm0-2.667a.667.667 0 0 0 .666-.667H40c0 .369.298.667.667.667zm4.666-2H36v-6.667c0-.368.298-.666.667-.666h8c.368 0 .666.298.666.666V62zm1.334 0H48v-7.333a3.337 3.337 0 0 0-3.333-3.334h-8a3.337 3.337 0 0 0-3.334 3.334V62h1.334v-6.667a2 2 0 0 1 2-2h8a2 2 0 0 1 2 2V62zm1.26-10.667h2.74V58h-1.334v-3.333a4.651 4.651 0 0 0-1.406-3.334zM62 66.667a3.337 3.337 0 0 1-3.333-3.334H60a2 2 0 1 0 4 0h1.333A3.337 3.337 0 0 1 62 66.667zM62 64a.667.667 0 0 0 .667-.667h-1.334c0 .369.299.667.667.667zm-2-2v-4.667h1.333V56H60V46h2.8l3.692 16H60zm-10.667 0h9.334v-2.667h-9.334V62zM64 56h-1.333v1.333H64V56zm-26.667 0h1.334v1.333h-1.334V56zm4 0H40v1.333h1.333V56zm1.334 0H44v1.333h-1.333V56zm14-12.667a.667.667 0 1 1 0 1.334.667.667 0 0 1 0-1.334zM28 32.667h8.667V34H28v-1.333zm9.333 2.666h-8v1.334h8v-1.334z" fill="#495567"/></svg><svg fill="none" viewBox="0 0 24 24" id="icon-facebook" xmlns="http://www.w3.org/2000/svg"><path d="M22.675 0H1.325C.593 0 0 .593 0 1.325v21.351C0 23.407.593 24 1.325 24H12.82v-9.294H9.692v-3.622h3.128V8.413c0-3.1 1.893-4.788 4.659-4.788 1.325 0 2.463.099 2.795.143v3.24l-1.918.001c-1.504 0-1.795.715-1.795 1.763v2.313h3.587l-.467 3.622h-3.12V24h6.116c.73 0 1.323-.593 1.323-1.325V1.325C24 .593 23.407 0 22.675 0z" fill="#FCB72B"/></svg><svg fill="none" viewBox="0 0 24 24" id="icon-instagram" xmlns="http://www.w3.org/2000/svg"><path fill-rule="evenodd" clip-rule="evenodd" d="M12 0C8.741 0 8.333.014 7.053.072 2.695.272.273 2.69.073 7.052.014 8.333 0 8.741 0 12c0 3.259.014 3.668.072 4.948.2 4.358 2.618 6.78 6.98 6.98C8.333 23.986 8.741 24 12 24c3.259 0 3.668-.014 4.948-.072 4.354-.2 6.782-2.618 6.979-6.98.059-1.28.073-1.689.073-4.948 0-3.259-.014-3.667-.072-4.947-.196-4.354-2.617-6.78-6.979-6.98C15.668.014 15.259 0 12 0zm0 2.163c3.204 0 3.584.012 4.85.07 3.252.148 4.771 1.691 4.919 4.919.058 1.265.069 1.645.069 4.849 0 3.205-.012 3.584-.069 4.849-.149 3.225-1.664 4.771-4.919 4.919-1.266.058-1.644.07-4.85.07-3.204 0-3.584-.012-4.849-.07-3.26-.149-4.771-1.699-4.919-4.92-.058-1.265-.07-1.644-.07-4.849 0-3.204.013-3.583.07-4.849.149-3.227 1.664-4.771 4.919-4.919 1.266-.057 1.645-.069 4.849-.069zM5.838 12a6.162 6.162 0 1 1 12.324 0 6.162 6.162 0 0 1-12.324 0zM12 16a4 4 0 1 1 0-8 4 4 0 0 1 0 8zm4.965-10.405a1.44 1.44 0 1 1 2.881.001 1.44 1.44 0 0 1-2.881-.001z" fill="#FCB72B"/></svg><svg fill="none" viewBox="0 0 96 96" id="icon-scooter" xmlns="http://www.w3.org/2000/svg"><circle cx="48" cy="48" r="48" fill="#FCB72B"/><path d="M45.07 62.301a.833.833 0 0 0-.585.242.833.833 0 0 0-.242.585c0 .217.088.43.242.584a.833.833 0 0 0 .585.243c.217 0 .43-.089.584-.242a.832.832 0 0 0 .243-.585.833.833 0 0 0-.243-.585.834.834 0 0 0-.584-.242z" fill="#000"/><path fill-rule="evenodd" clip-rule="evenodd" d="m61.54 48.419-1.928-8.706a2.06 2.06 0 0 0 1.301-.718c.381.238.83.376 1.312.376h1.654c.456 0 .826-.37.826-.827v-3.307a.827.827 0 0 0-.826-.827h-1.654a2.47 2.47 0 0 0-1.346.398 2.06 2.06 0 0 0-1.546-.698h-4.88c-.878 0-1.628.55-1.927 1.323h-1.96c-1.186 0-2.15.964-2.15 2.15 0 1.185.965 2.15 2.15 2.15h4.256v1.666a.827.827 0 1 0 1.654 0v-1.666h1.447l2.075 9.378-3.928 6.997a2.429 2.429 0 0 1-2.113 1.234h-9.806c-.411-3.442-3.346-6.121-6.898-6.121a6.88 6.88 0 0 0-4.287 1.48l-.005.004a6.906 6.906 0 0 0-2.607 4.637h-1.698c.108-5.944 4.977-10.746 10.946-10.746h5.866c.463 0 .84.377.84.84v7.426c0 .456.37.826.826.826h4.4a4.932 4.932 0 0 0 4.932-4.926l.004-2.747a.827.827 0 0 0-1.654-.003l-.004 2.748a3.279 3.279 0 0 1-3.278 3.274h-3.573v-6.599a2.48 2.48 0 0 0-.293-1.172 2.482 2.482 0 0 0 1.244-2.15 2.483 2.483 0 0 0-2.48-2.48h-3.019c-.29 0-.568.05-.827.142v-7.253a2.483 2.483 0 0 0-2.48-2.48H34.77c-3.867 0-7.082 2.838-7.674 6.541a.83.83 0 0 0-.038.25v.014a7.79 7.79 0 0 0-.059.966v4.3c0 1.243.918 2.275 2.11 2.454l1.832 1.83A12.568 12.568 0 0 0 27 57.545v.625c0 .457.37.827.827.827h4.647a.85.85 0 0 0-.017.165c0 1.2.444 2.298 1.176 3.14h-5.806a.827.827 0 0 0 0 1.654h9.358c.023.002.045.002.068.002a4.801 4.801 0 0 0 4.796-4.796.842.842 0 0 0-.016-.165h11.924a4.085 4.085 0 0 0 3.281-1.656h1.047A4.772 4.772 0 0 0 59.1 62.3H48.377a.827.827 0 0 0 0 1.654h14.248l.096.002a4.801 4.801 0 0 0 4.796-4.796 4.79 4.79 0 0 0-.36-1.821h1.352c.457 0 .827-.37.827-.827 0-4.365-3.47-7.934-7.797-8.094zm-18.127-5.132h3.018a.828.828 0 0 1 0 1.654h-3.018a.828.828 0 0 1 0-1.654zm-14.757-3.576-.002.102v4.3c0 .457.37.828.826.828h10.625a.828.828 0 0 0 .827-.827v-9.592a.828.828 0 0 0-.827-.827h-5.334a6.128 6.128 0 0 0-5.845 4.311h8.78a.827.827 0 1 1 0 1.654h-9.048l-.002.05zm2.821 6.884h1.892c-.397.226-.78.475-1.15.742l-.742-.742zm5.808 15.708a3.145 3.145 0 0 0 3.11-3.142.85.85 0 0 1 .017-.165h-6.317c.01.053.016.109.016.165a3.145 3.145 0 0 0 3.047 3.14h.114l.013.002zm-5.262-4.96a5.26 5.26 0 0 1 1.96-3.338L33.99 54a5.24 5.24 0 0 1 3.263-1.125 5.303 5.303 0 0 1 5.23 4.467h-10.46zm31.029-21.28h-.827a.828.828 0 0 0 0 1.655h.827v-1.654zm-12.982 1.52c0-.274.222-.496.496-.496h1.822v.58c0 .142.014.279.04.412h-1.862a.497.497 0 0 1-.496-.496zm4.382.496h4.881a.411.411 0 0 0 .411-.411v-1.494a.411.411 0 0 0-.41-.41h-4.882a.411.411 0 0 0-.41.41v1.494c0 .227.184.41.41.41zM65.863 59.16a3.145 3.145 0 0 1-3.11 3.142h-.007l-.007-.001a.28.28 0 0 0-.018-.001h-.095a3.145 3.145 0 0 1-3.047-3.14c0-.657.205-1.292.582-1.821h5.12c.377.53.582 1.164.582 1.821zm-4.507-9.091-3.153 5.616h9.426a6.454 6.454 0 0 0-6.273-5.616z" fill="#495567"/><path d="M55.649 45.533a.827.827 0 1 0 0-1.653h-.003a.826.826 0 1 0 .003 1.653z" fill="#000"/></svg><svg fill="none" viewBox="0 0 24 20" id="icon-twitter" xmlns="http://www.w3.org/2000/svg"><path d="M24 2.557a9.83 9.83 0 0 1-2.828.775A4.932 4.932 0 0 0 23.337.608a9.864 9.864 0 0 1-3.127 1.195A4.916 4.916 0 0 0 16.616.248c-3.179 0-5.515 2.966-4.797 6.045A13.978 13.978 0 0 1 1.671 1.149a4.93 4.93 0 0 0 1.523 6.574 4.903 4.903 0 0 1-2.229-.616c-.054 2.281 1.581 4.415 3.949 4.89a4.935 4.935 0 0 1-2.224.084 4.928 4.928 0 0 0 4.6 3.419A9.9 9.9 0 0 1 0 17.54a13.94 13.94 0 0 0 7.548 2.212c9.142 0 14.307-7.721 13.995-14.646A10.025 10.025 0 0 0 24 2.557z" fill="#FCB72B"/></svg><svg fill="none" viewBox="0 0 108 29" id="logo" xmlns="http://www.w3.org/2000/svg"><path fill-rule="evenodd" clip-rule="evenodd" d="M107.097 23.2V28h-8.4c-.907 0-1.647-.293-2.22-.88-.573-.587-.86-1.333-.86-2.24V12.96h-5.88v-4.8h5.88V0h5.04v8.16h7.16v4.8h-7.16V22c0 .8.36 1.2 1.08 1.2h5.36zM9.12 28.56c2.613 0 4.64-.587 6.08-1.76 1.44-1.173 2.16-2.747 2.16-4.72v-.24c0-1.787-.64-3.18-1.92-4.18-1.28-1-2.933-1.607-4.96-1.82-1.76-.187-2.973-.42-3.64-.7-.667-.28-1-.74-1-1.38 0-.453.213-.833.64-1.14.427-.307 1.067-.46 1.92-.46.933 0 1.693.207 2.28.62.587.413 1 .98 1.24 1.7l4.56-1.84a8.832 8.832 0 0 0-.92-1.74c-.4-.6-.92-1.147-1.56-1.64-.64-.493-1.42-.893-2.34-1.2-.92-.307-2.007-.46-3.26-.46-.96 0-1.893.133-2.8.4a7.473 7.473 0 0 0-2.4 1.18 6.193 6.193 0 0 0-1.68 1.9c-.427.747-.64 1.613-.64 2.6v.24c0 1.893.66 3.327 1.98 4.3 1.32.973 3.1 1.553 5.34 1.74.827.08 1.513.187 2.06.32.547.133.98.3 1.3.5.32.2.54.413.66.64.12.227.18.473.18.74 0 .453-.233.873-.7 1.26-.467.387-1.327.58-2.58.58-1.413 0-2.46-.32-3.14-.96-.68-.64-1.127-1.387-1.34-2.24L0 22.32c.133.693.393 1.407.78 2.14.387.733.94 1.4 1.66 2 .72.6 1.627 1.1 2.72 1.5 1.093.4 2.413.6 3.96.6zm22.454 0c2.827 0 5.087-.72 6.78-2.16 1.694-1.44 2.767-3.333 3.22-5.68l-4.96-1.24c-.24 1.307-.766 2.347-1.58 3.12-.813.773-1.993 1.16-3.54 1.16-.72 0-1.4-.113-2.04-.34a4.705 4.705 0 0 1-1.68-1.02c-.48-.453-.86-1.02-1.14-1.7-.28-.68-.42-1.46-.42-2.34v-.24c0-.88.14-1.673.42-2.38.28-.707.66-1.307 1.14-1.8a5.006 5.006 0 0 1 1.68-1.14 5.25 5.25 0 0 1 2.04-.4c1.547 0 2.747.427 3.6 1.28a5.184 5.184 0 0 1 1.52 3.04l4.96-1.28c-.453-2.347-1.54-4.24-3.26-5.68-1.72-1.44-3.966-2.16-6.74-2.16-1.44 0-2.793.24-4.06.72a9.726 9.726 0 0 0-3.32 2.08c-.946.907-1.686 2-2.22 3.28-.533 1.28-.8 2.72-.8 4.32v.48c0 1.6.267 3.027.8 4.28.534 1.253 1.267 2.307 2.2 3.16.934.853 2.034 1.507 3.3 1.96 1.267.453 2.634.68 4.1.68zm26.355-.68c-1.24.453-2.54.68-3.9.68-1.36 0-2.66-.227-3.9-.68a9.996 9.996 0 0 1-3.3-1.98c-.96-.867-1.72-1.933-2.28-3.2-.56-1.267-.84-2.727-.84-4.38v-.48c0-1.627.28-3.073.84-4.34.56-1.267 1.32-2.34 2.28-3.22a9.827 9.827 0 0 1 3.3-2c1.24-.453 2.54-.68 3.9-.68 1.36 0 2.66.227 3.9.68a9.827 9.827 0 0 1 3.3 2c.96.88 1.72 1.953 2.28 3.22.56 1.267.84 2.713.84 4.34v.48c0 1.653-.28 3.113-.84 4.38-.56 1.267-1.32 2.333-2.28 3.2a9.996 9.996 0 0 1-3.3 1.98zm-3.9-4.12c-.72 0-1.4-.12-2.04-.36a4.95 4.95 0 0 1-1.68-1.04 4.911 4.911 0 0 1-1.14-1.66c-.28-.653-.42-1.393-.42-2.22v-.8c0-.827.14-1.567.42-2.22.28-.653.66-1.207 1.14-1.66a4.95 4.95 0 0 1 1.68-1.04c.64-.24 1.32-.36 2.04-.36s1.4.12 2.04.36c.64.24 1.2.587 1.68 1.04.48.453.86 1.007 1.14 1.66.28.653.42 1.393.42 2.22v.8c0 .827-.14 1.567-.42 2.22a4.911 4.911 0 0 1-1.14 1.66c-.48.453-1.04.8-1.68 1.04-.64.24-1.32.36-2.04.36zm26.594 4.12c-1.24.453-2.54.68-3.9.68-1.36 0-2.66-.227-3.9-.68a9.996 9.996 0 0 1-3.3-1.98c-.96-.867-1.72-1.933-2.28-3.2-.56-1.267-.84-2.727-.84-4.38v-.48c0-1.627.28-3.073.84-4.34.56-1.267 1.32-2.34 2.28-3.22a9.827 9.827 0 0 1 3.3-2c1.24-.453 2.54-.68 3.9-.68 1.36 0 2.66.227 3.9.68a9.827 9.827 0 0 1 3.3 2c.96.88 1.72 1.953 2.28 3.22.56 1.267.84 2.713.84 4.34v.48c0 1.653-.28 3.113-.84 4.38-.56 1.267-1.32 2.333-2.28 3.2a9.996 9.996 0 0 1-3.3 1.98zm-3.9-4.12c-.72 0-1.4-.12-2.04-.36a4.95 4.95 0 0 1-1.68-1.04 4.911 4.911 0 0 1-1.14-1.66c-.28-.653-.42-1.393-.42-2.22v-.8c0-.827.14-1.567.42-2.22.28-.653.66-1.207 1.14-1.66a4.95 4.95 0 0 1 1.68-1.04c.64-.24 1.32-.36 2.04-.36s1.4.12 2.04.36c.64.24 1.2.587 1.68 1.04.48.453.86 1.007 1.14 1.66.28.653.42 1.393.42 2.22v.8c0 .827-.14 1.567-.42 2.22a4.911 4.911 0 0 1-1.14 1.66c-.48.453-1.04.8-1.68 1.04-.64.24-1.32.36-2.04.36z" fill="#495567"/></svg><svg fill="none" viewBox="0 0 96 96" id="one" xmlns="http://www.w3.org/2000/svg"><g clip-path="url(#sa)"><circle cx="48" cy="48" r="48" fill="#FCB72B"/><path d="M39.668 48.6c0-.544.2-1.016.6-1.416.4-.4.872-.6 1.416-.6.544 0 1.016.2 1.416.6.4.4.6.872.6 1.416 0 .544-.2 1.016-.6 1.416-.4.4-.872.6-1.416.6-.544 0-1.016-.2-1.416-.6-.4-.4-.6-.872-.6-1.416Zm-4.176-1.872c0-2.176.544-3.864 1.632-5.064 1.104-1.2 2.624-1.8 4.56-1.8 1.936 0 3.448.6 4.536 1.8 1.104 1.2 1.656 2.888 1.656 5.064v3.744c0 2.24-.552 3.944-1.656 5.112-1.088 1.168-2.6 1.752-4.536 1.752-1.936 0-3.456-.584-4.56-1.752-1.088-1.168-1.632-2.872-1.632-5.112v-3.744Zm6.192 7.728c.576 0 1.056-.088 1.44-.264.384-.192.696-.456.936-.792.24-.336.408-.736.504-1.2.096-.464.144-.976.144-1.536v-4.128c0-.528-.056-1.024-.168-1.488a3.423 3.423 0 0 0-.528-1.2c-.24-.336-.552-.6-.936-.792-.384-.208-.848-.312-1.392-.312-.544 0-1.008.104-1.392.312a2.507 2.507 0 0 0-.936.792c-.24.336-.416.736-.528 1.2-.112.464-.168.96-.168 1.488v4.128c0 .56.048 1.072.144 1.536.096.464.264.864.504 1.2.24.336.552.6.936.792.384.176.864.264 1.44.264Zm12.616-.48V41.784h-.432l-1.584 5.76H49.26v-.288l2.016-7.056h6.192v13.776h4.176V57H49.548v-3.024H54.3Z" fill="#495567"/></g><defs><clipPath id="sa"><path fill="#fff" d="M0 0h96v96H0z"/></clipPath></defs></svg><svg fill="none" viewBox="0 0 96 96" id="values-num-1" xmlns="http://www.w3.org/2000/svg"><g clip-path="url(#ta)"><circle cx="48" cy="48" r="48" fill="#FCB72B"/><path d="M39.668 48.6c0-.544.2-1.016.6-1.416.4-.4.872-.6 1.416-.6.544 0 1.016.2 1.416.6.4.4.6.872.6 1.416 0 .544-.2 1.016-.6 1.416-.4.4-.872.6-1.416.6-.544 0-1.016-.2-1.416-.6-.4-.4-.6-.872-.6-1.416zm-4.176-1.872c0-2.176.544-3.864 1.632-5.064 1.104-1.2 2.624-1.8 4.56-1.8 1.936 0 3.448.6 4.536 1.8 1.104 1.2 1.656 2.888 1.656 5.064v3.744c0 2.24-.552 3.944-1.656 5.112-1.088 1.168-2.6 1.752-4.536 1.752-1.936 0-3.456-.584-4.56-1.752-1.088-1.168-1.632-2.872-1.632-5.112v-3.744zm6.192 7.728c.576 0 1.056-.088 1.44-.264.384-.192.696-.456.936-.792.24-.336.408-.736.504-1.2.096-.464.144-.976.144-1.536v-4.128c0-.528-.056-1.024-.168-1.488a3.423 3.423 0 0 0-.528-1.2c-.24-.336-.552-.6-.936-.792-.384-.208-.848-.312-1.392-.312-.544 0-1.008.104-1.392.312a2.507 2.507 0 0 0-.936.792c-.24.336-.416.736-.528 1.2-.112.464-.168.96-.168 1.488v4.128c0 .56.048 1.072.144 1.536.096.464.264.864.504 1.2.24.336.552.6.936.792.384.176.864.264 1.44.264zm12.616-.48V41.784h-.432l-1.584 5.76H49.26v-.288l2.016-7.056h6.192v13.776h4.176V57H49.548v-3.024H54.3z" fill="#495567"/></g><defs><clipPath id="ta"><path fill="#fff" d="M0 0h96v96H0z"/></clipPath></defs></svg><svg fill="none" viewBox="0 0 96 96" id="values-num-2" xmlns="http://www.w3.org/2000/svg"><g clip-path="url(#ua)"><circle cx="48" cy="48" r="48" fill="#FCB72B"/><path d="M39.668 48.6c0-.544.2-1.016.6-1.416.4-.4.872-.6 1.416-.6.544 0 1.016.2 1.416.6.4.4.6.872.6 1.416 0 .544-.2 1.016-.6 1.416-.4.4-.872.6-1.416.6-.544 0-1.016-.2-1.416-.6-.4-.4-.6-.872-.6-1.416zm-4.176-1.872c0-2.176.544-3.864 1.632-5.064 1.104-1.2 2.624-1.8 4.56-1.8 1.936 0 3.448.6 4.536 1.8 1.104 1.2 1.656 2.888 1.656 5.064v3.744c0 2.24-.552 3.944-1.656 5.112-1.088 1.168-2.6 1.752-4.536 1.752-1.936 0-3.456-.584-4.56-1.752-1.088-1.168-1.632-2.872-1.632-5.112v-3.744zm6.192 7.728c.576 0 1.056-.088 1.44-.264.384-.192.696-.456.936-.792.24-.336.408-.736.504-1.2.096-.464.144-.976.144-1.536v-4.128c0-.528-.056-1.024-.168-1.488a3.423 3.423 0 0 0-.528-1.2c-.24-.336-.552-.6-.936-.792-.384-.208-.848-.312-1.392-.312-.544 0-1.008.104-1.392.312a2.507 2.507 0 0 0-.936.792c-.24.336-.416.736-.528 1.2-.112.464-.168.96-.168 1.488v4.128c0 .56.048 1.072.144 1.536.096.464.264.864.504 1.2.24.336.552.6.936.792.384.176.864.264 1.44.264zm19.648-.48V57H49.524v-3.312c0-.88.128-1.632.384-2.256a4.54 4.54 0 0 1 1.128-1.584 6.078 6.078 0 0 1 1.776-1.056 13.774 13.774 0 0 1 2.328-.72c.64-.144 1.16-.304 1.56-.48.416-.192.744-.4.984-.624.24-.24.4-.496.48-.768.096-.288.144-.608.144-.96a2.17 2.17 0 0 0-.744-1.68c-.48-.448-1.152-.672-2.016-.672-.912 0-1.64.28-2.184.84-.544.544-.816 1.304-.816 2.28v1.056H49.38V45.72c0-.784.136-1.528.408-2.232a5.694 5.694 0 0 1 1.2-1.872 5.52 5.52 0 0 1 1.92-1.272c.752-.32 1.6-.48 2.544-.48 1.008 0 1.888.152 2.64.456.752.288 1.376.672 1.872 1.152.512.48.888 1.04 1.128 1.68.256.624.384 1.272.384 1.944v.288c0 1.408-.4 2.576-1.2 3.504-.784.928-2.072 1.6-3.864 2.016-.752.176-1.376.36-1.872.552-.48.176-.856.376-1.128.6a1.918 1.918 0 0 0-.576.744 2.521 2.521 0 0 0-.144.888v.288h8.64z" fill="#495567"/></g><defs><clipPath id="ua"><path fill="#fff" d="M0 0h96v96H0z"/></clipPath></defs></svg><svg fill="none" viewBox="0 0 96 96" id="values-num-3" xmlns="http://www.w3.org/2000/svg"><g clip-path="url(#va)"><circle cx="48" cy="48" r="48" fill="#FCB72B"/><path d="M39.668 48.6c0-.544.2-1.016.6-1.416.4-.4.872-.6 1.416-.6.544 0 1.016.2 1.416.6.4.4.6.872.6 1.416 0 .544-.2 1.016-.6 1.416-.4.4-.872.6-1.416.6-.544 0-1.016-.2-1.416-.6-.4-.4-.6-.872-.6-1.416zm-4.176-1.872c0-2.176.544-3.864 1.632-5.064 1.104-1.2 2.624-1.8 4.56-1.8 1.936 0 3.448.6 4.536 1.8 1.104 1.2 1.656 2.888 1.656 5.064v3.744c0 2.24-.552 3.944-1.656 5.112-1.088 1.168-2.6 1.752-4.536 1.752-1.936 0-3.456-.584-4.56-1.752-1.088-1.168-1.632-2.872-1.632-5.112v-3.744zm6.192 7.728c.576 0 1.056-.088 1.44-.264.384-.192.696-.456.936-.792.24-.336.408-.736.504-1.2.096-.464.144-.976.144-1.536v-4.128c0-.528-.056-1.024-.168-1.488a3.423 3.423 0 0 0-.528-1.2c-.24-.336-.552-.6-.936-.792-.384-.208-.848-.312-1.392-.312-.544 0-1.008.104-1.392.312a2.507 2.507 0 0 0-.936.792c-.24.336-.416.736-.528 1.2-.112.464-.168.96-.168 1.488v4.128c0 .56.048 1.072.144 1.536.096.464.264.864.504 1.2.24.336.552.6.936.792.384.176.864.264 1.44.264zM53.676 49.8v-4.992l4.176-1.152v-.432H49.5V40.2h10.944v5.28l-4.464 1.296v.432h.576c.592 0 1.176.096 1.752.288.576.176 1.08.456 1.512.84.448.384.808.864 1.08 1.44.272.56.408 1.224.408 1.992v.288c0 .752-.128 1.448-.384 2.088a4.52 4.52 0 0 1-1.104 1.68c-.48.464-1.08.832-1.8 1.104-.72.272-1.544.408-2.472.408-.944 0-1.8-.152-2.568-.456a5.91 5.91 0 0 1-1.968-1.248 5.63 5.63 0 0 1-1.656-4.008v-1.008h3.168v.864c0 .768.248 1.432.744 1.992s1.24.84 2.232.84c.848 0 1.496-.216 1.944-.648.464-.432.696-1 .696-1.704 0-.752-.248-1.296-.744-1.632-.48-.352-1.096-.528-1.848-.528h-1.872z" fill="#495567"/></g><defs><clipPath id="va"><path fill="#fff" d="M0 0h96v96H0z"/></clipPath></defs></svg><svg fill="none" viewBox="0 0 741 151" id="yellow-arrow" xmlns="http://www.w3.org/2000/svg"><path d="M740.969 8H182.854v99.369H6.591" stroke="#FCB72B" stroke-width="15" stroke-linejoin="bevel"/><path d="M44.64 145.639 6.212 107.213 44.64 68.787" stroke="#FCB72B" stroke-width="15" stroke-linejoin="bevel"/></svg><svg fill="none" viewBox="0 0 741 151" id="yellow-arrow-about" xmlns="http://www.w3.org/2000/svg"><path d="M740.969 143.369H182.854V44H6.591" stroke="#FCB72B" stroke-width="15" stroke-linejoin="bevel"/><path d="M44.639 82.64 6.212 44.212 44.64 5.787" stroke="#FCB72B" stroke-width="15" stroke-linejoin="bevel"/></svg></svg>